<svg xmlns="http://www.w3.org/2000/svg" viewBox="0 0 800 300">
<rect width="800" height="300" fill="#1a1a2e"/>
<text x="400.0" y="20" fill="#fff" font-size="12" text-anchor="middle" font-weight="bold">Structure #3 — Zone 48612</text>
<text x="400.0" y="38" fill="#888" font-size="10" text-anchor="middle">cycles=27  speed_r=2.44  time_r=2.38</text>
<rect x="77.0" y="117.55" width="6" height="32.45" fill="#26a69a" rx="1"/>
<rect x="87.0" y="150" width="6" height="22.15" fill="#ef5350" rx="1" opacity="0.6"/>
<text x="85.0" y="170" fill="#888" font-size="8" text-anchor="middle">1.4</text>
<rect x="147.0" y="117.5" width="6" height="32.5" fill="#26a69a" rx="1"/>
<rect x="157.0" y="150" width="6" height="11.75" fill="#ef5350" rx="1" opacity="0.6"/>
<text x="155.0" y="170" fill="#888" font-size="8" text-anchor="middle">1.3</text>
<rect x="217.0" y="150" width="6" height="10" fill="#ef5350" rx="1"/>
<rect x="227.0" y="132.1" width="6" height="17.9" fill="#26a69a" rx="1" opacity="0.6"/>
<text x="225.0" y="170" fill="#888" font-size="8" text-anchor="middle">1.0</text>
<rect x="287.0" y="150" width="6" height="36.25" fill="#ef5350" rx="1"/>
<rect x="297.0" y="121.55" width="6" height="28.45" fill="#26a69a" rx="1" opacity="0.6"/>
<text x="295.0" y="170" fill="#888" font-size="8" text-anchor="middle">0.4</text>
<rect x="357.0" y="150" width="6" height="35.0" fill="#ef5350" rx="1"/>
<rect x="367.0" y="123.45" width="6" height="26.55" fill="#26a69a" rx="1" opacity="0.6"/>
<text x="365.0" y="170" fill="#888" font-size="8" text-anchor="middle">0.5</text>
<rect x="427.0" y="150" width="6" height="12.8" fill="#ef5350" rx="1"/>
<rect x="437.0" y="136.65" width="6" height="13.35" fill="#26a69a" rx="1" opacity="0.6"/>
<text x="435.0" y="170" fill="#888" font-size="8" text-anchor="middle">0.6</text>
<rect x="497.0" y="150" width="6" height="10.95" fill="#ef5350" rx="1"/>
<rect x="507.0" y="132.4" width="6" height="17.6" fill="#26a69a" rx="1" opacity="0.6"/>
<text x="505.0" y="170" fill="#888" font-size="8" text-anchor="middle">0.6</text>
<rect x="567.0" y="140" width="6" height="10" fill="#26a69a" rx="1"/>
<rect x="577.0" y="150" width="6" height="10" fill="#ef5350" rx="1" opacity="0.6"/>
<text x="575.0" y="170" fill="#888" font-size="8" text-anchor="middle">0.3</text>
<rect x="637.0" y="150" width="6" height="15.1" fill="#ef5350" rx="1"/>
<rect x="647.0" y="134.75" width="6" height="15.25" fill="#26a69a" rx="1" opacity="0.6"/>
<text x="645.0" y="170" fill="#888" font-size="8" text-anchor="middle">10.6</text>
<rect x="707.0" y="140" width="6" height="10" fill="#26a69a" rx="1"/>
<rect x="717.0" y="150" width="6" height="10.4" fill="#ef5350" rx="1" opacity="0.6"/>
<text x="715.0" y="170" fill="#888" font-size="8" text-anchor="middle">0.4</text>
<rect x="20" y="270" width="10" height="10" fill="#26a69a"/>
<text x="35" y="279" fill="#888" font-size="9">上涨段</text>
<rect x="80" y="270" width="10" height="10" fill="#ef5350"/>
<text x="95" y="279" fill="#888" font-size="9">下跌段</text>
<text x="400.0" y="279" fill="#666" font-size="9" text-anchor="middle">左=entry  右=exit</text>
</svg>