<svg xmlns="http://www.w3.org/2000/svg" viewBox="0 0 800 300">
<rect width="800" height="300" fill="#1a1a2e"/>
<text x="400.0" y="20" fill="#fff" font-size="12" text-anchor="middle" font-weight="bold">Structure #2 — Zone 50634</text>
<text x="400.0" y="38" fill="#888" font-size="10" text-anchor="middle">cycles=28  speed_r=1.15  time_r=1.37</text>
<rect x="77.0" y="150" width="6" height="27.5" fill="#ef5350" rx="1"/>
<rect x="87.0" y="130.6" width="6" height="19.4" fill="#26a69a" rx="1" opacity="0.6"/>
<text x="85.0" y="170" fill="#888" font-size="8" text-anchor="middle">0.8</text>
<rect x="147.0" y="126.55" width="6" height="23.45" fill="#26a69a" rx="1"/>
<rect x="157.0" y="150" width="6" height="26.55" fill="#ef5350" rx="1" opacity="0.6"/>
<text x="155.0" y="170" fill="#888" font-size="8" text-anchor="middle">1.6</text>
<rect x="217.0" y="123.25" width="6" height="26.75" fill="#26a69a" rx="1"/>
<rect x="227.0" y="150" width="6" height="22.0" fill="#ef5350" rx="1" opacity="0.6"/>
<text x="225.0" y="170" fill="#888" font-size="8" text-anchor="middle">4.9</text>
<rect x="287.0" y="130.4" width="6" height="19.6" fill="#26a69a" rx="1"/>
<rect x="297.0" y="150" width="6" height="18.45" fill="#ef5350" rx="1" opacity="0.6"/>
<text x="295.0" y="170" fill="#888" font-size="8" text-anchor="middle">1.3</text>
<rect x="357.0" y="135.6" width="6" height="14.4" fill="#26a69a" rx="1"/>
<rect x="367.0" y="150" width="6" height="22.35" fill="#ef5350" rx="1" opacity="0.6"/>
<text x="365.0" y="170" fill="#888" font-size="8" text-anchor="middle">0.4</text>
<rect x="427.0" y="128.45" width="6" height="21.55" fill="#26a69a" rx="1"/>
<rect x="437.0" y="150" width="6" height="10" fill="#ef5350" rx="1" opacity="0.6"/>
<text x="435.0" y="170" fill="#888" font-size="8" text-anchor="middle">0.8</text>
<rect x="497.0" y="150" width="6" height="54.4" fill="#ef5350" rx="1"/>
<rect x="507.0" y="101.05" width="6" height="48.95" fill="#26a69a" rx="1" opacity="0.6"/>
<text x="505.0" y="170" fill="#888" font-size="8" text-anchor="middle">0.6</text>
<rect x="567.0" y="150" width="6" height="17.25" fill="#ef5350" rx="1"/>
<rect x="577.0" y="140" width="6" height="10" fill="#26a69a" rx="1" opacity="0.6"/>
<text x="575.0" y="170" fill="#888" font-size="8" text-anchor="middle">0.0</text>
<rect x="637.0" y="150" width="6" height="30.1" fill="#ef5350" rx="1"/>
<rect x="647.0" y="98.75" width="6" height="51.25" fill="#26a69a" rx="1" opacity="0.6"/>
<text x="645.0" y="170" fill="#888" font-size="8" text-anchor="middle">1.0</text>
<rect x="707.0" y="134.9" width="6" height="15.1" fill="#26a69a" rx="1"/>
<rect x="717.0" y="150" width="6" height="12.8" fill="#ef5350" rx="1" opacity="0.6"/>
<text x="715.0" y="170" fill="#888" font-size="8" text-anchor="middle">1.0</text>
<rect x="20" y="270" width="10" height="10" fill="#26a69a"/>
<text x="35" y="279" fill="#888" font-size="9">上涨段</text>
<rect x="80" y="270" width="10" height="10" fill="#ef5350"/>
<text x="95" y="279" fill="#888" font-size="9">下跌段</text>
<text x="400.0" y="279" fill="#666" font-size="9" text-anchor="middle">左=entry  右=exit</text>
</svg>