<svg xmlns="http://www.w3.org/2000/svg" viewBox="0 0 800 300">
<rect width="800" height="300" fill="#1a1a2e"/>
<text x="400.0" y="20" fill="#fff" font-size="12" text-anchor="middle" font-weight="bold">Structure #1 — Zone 70410</text>
<text x="400.0" y="38" fill="#888" font-size="10" text-anchor="middle">cycles=32  speed_r=1.45  time_r=2.64</text>
<rect x="77.0" y="150" width="6" height="60" fill="#ef5350" rx="1"/>
<rect x="87.0" y="115.9" width="6" height="34.1" fill="#26a69a" rx="1" opacity="0.6"/>
<text x="85.0" y="170" fill="#888" font-size="8" text-anchor="middle">0.9</text>
<rect x="147.0" y="99.5" width="6" height="50.5" fill="#26a69a" rx="1"/>
<rect x="157.0" y="150" width="6" height="23.55" fill="#ef5350" rx="1" opacity="0.6"/>
<text x="155.0" y="170" fill="#888" font-size="8" text-anchor="middle">4.7</text>
<rect x="217.0" y="128.25" width="6" height="21.75" fill="#26a69a" rx="1"/>
<rect x="227.0" y="150" width="6" height="22.95" fill="#ef5350" rx="1" opacity="0.6"/>
<text x="225.0" y="170" fill="#888" font-size="8" text-anchor="middle">0.8</text>
<rect x="287.0" y="109.0" width="6" height="41.0" fill="#26a69a" rx="1"/>
<rect x="297.0" y="150" width="6" height="24.5" fill="#ef5350" rx="1" opacity="0.6"/>
<text x="295.0" y="170" fill="#888" font-size="8" text-anchor="middle">2.0</text>
<rect x="357.0" y="134.0" width="6" height="16.0" fill="#26a69a" rx="1"/>
<rect x="367.0" y="150" width="6" height="40.5" fill="#ef5350" rx="1" opacity="0.6"/>
<text x="365.0" y="170" fill="#888" font-size="8" text-anchor="middle">0.9</text>
<rect x="427.0" y="90" width="6" height="60" fill="#26a69a" rx="1"/>
<rect x="437.0" y="150" width="6" height="18.2" fill="#ef5350" rx="1" opacity="0.6"/>
<text x="435.0" y="170" fill="#888" font-size="8" text-anchor="middle">9.5</text>
<rect x="497.0" y="130.05" width="6" height="19.95" fill="#26a69a" rx="1"/>
<rect x="507.0" y="150" width="6" height="39.45" fill="#ef5350" rx="1" opacity="0.6"/>
<text x="505.0" y="170" fill="#888" font-size="8" text-anchor="middle">0.9</text>
<rect x="567.0" y="111.15" width="6" height="38.85" fill="#26a69a" rx="1"/>
<rect x="577.0" y="150" width="6" height="46.15" fill="#ef5350" rx="1" opacity="0.6"/>
<text x="575.0" y="170" fill="#888" font-size="8" text-anchor="middle">1.3</text>
<rect x="637.0" y="107.35" width="6" height="42.65" fill="#26a69a" rx="1"/>
<rect x="647.0" y="150" width="6" height="12.65" fill="#ef5350" rx="1" opacity="0.6"/>
<text x="645.0" y="170" fill="#888" font-size="8" text-anchor="middle">3.1</text>
<rect x="707.0" y="134.6" width="6" height="15.4" fill="#26a69a" rx="1"/>
<rect x="717.0" y="150" width="6" height="10.6" fill="#ef5350" rx="1" opacity="0.6"/>
<text x="715.0" y="170" fill="#888" font-size="8" text-anchor="middle">2.1</text>
<rect x="20" y="270" width="10" height="10" fill="#26a69a"/>
<text x="35" y="279" fill="#888" font-size="9">上涨段</text>
<rect x="80" y="270" width="10" height="10" fill="#ef5350"/>
<text x="95" y="279" fill="#888" font-size="9">下跌段</text>
<text x="400.0" y="279" fill="#666" font-size="9" text-anchor="middle">左=entry  右=exit</text>
</svg>